<svg width="439" height="519" viewBox="0 0 439 519" fill="none" xmlns="http://www.w3.org/2000/svg">
    <path d="M64.4609 434.265H72.7009V461.505H63.5809V451.665C63.1409 452.145 62.6209 452.545 61.9409 452.985C61.3009 453.385 60.1409 453.825 58.4609 454.265C56.8209 454.705 54.9409 454.945 52.8209 454.945H52.5009C47.7009 454.945 44.1409 453.985 41.8209 452.065C39.5409 450.145 38.4209 447.625 38.4209 444.545V443.825C38.4209 440.905 39.5009 438.465 41.7009 436.625C43.9009 434.745 47.3409 433.785 52.0209 433.785H52.5809C57.1009 433.785 60.7809 434.865 63.6609 437.025C64.0209 436.425 64.3009 435.505 64.4609 434.265ZM63.5809 444.225C63.5809 442.825 62.8609 441.625 61.3409 440.585C59.8609 439.585 57.8209 439.065 55.2609 439.065H55.0609C52.3809 439.065 50.5009 439.585 49.3809 440.545C48.3009 441.505 47.7409 442.745 47.7409 444.265V444.425C47.7409 445.825 48.3009 447.065 49.5009 448.105C50.7009 449.145 52.5809 449.665 55.1409 449.665H55.3409C57.9009 449.665 59.9009 449.145 61.3809 448.065C62.8609 446.985 63.5809 445.785 63.5809 444.385V444.225ZM106.699 454.665H97.6593V451.145C97.2193 451.545 96.8993 451.825 96.7393 451.945C96.5793 452.105 96.0993 452.425 95.2993 452.905C94.5393 453.425 93.8193 453.785 93.1393 454.025C92.4993 454.265 91.5793 454.505 90.4593 454.745C89.3393 454.985 88.1793 455.105 86.9793 455.105H86.6593C83.1793 455.105 80.5793 454.305 78.8193 452.665C77.0593 451.065 76.2193 449.185 76.2193 447.025V434.465H85.4193V444.425C85.4193 445.985 85.8593 447.225 86.8193 448.105C87.7393 449.025 89.1793 449.465 91.0593 449.465C93.0193 449.465 94.6193 448.985 95.8193 447.985C96.9793 446.985 97.5793 445.625 97.5793 443.985V434.465H106.699V454.665ZM143.109 447.505C143.109 448.145 143.029 448.745 142.829 449.345C142.629 449.985 142.229 450.625 141.589 451.345C140.909 452.105 140.069 452.705 139.029 453.265C137.989 453.785 136.549 454.265 134.629 454.625C132.749 454.985 130.549 455.145 128.029 455.145H125.709C122.869 455.145 120.429 454.865 118.349 454.305C116.269 453.745 114.669 452.945 113.509 451.945C112.389 450.945 111.549 449.865 110.989 448.705C110.469 447.545 110.229 446.225 110.229 444.825V444.025C110.229 442.625 110.469 441.385 110.949 440.225C111.429 439.065 112.229 438.025 113.349 437.025C114.429 436.025 116.029 435.265 118.069 434.705C120.149 434.145 122.589 433.865 125.469 433.865H127.949C138.149 433.865 143.229 437.465 143.229 444.745V446.105H119.149C119.749 448.745 122.349 450.065 126.949 450.065H126.989C128.109 450.065 129.149 449.985 130.029 449.825C130.909 449.665 131.589 449.505 132.069 449.265C132.589 449.065 132.989 448.825 133.309 448.585C133.589 448.305 133.829 448.105 133.909 447.945C134.029 447.785 134.109 447.625 134.109 447.465H143.109V447.505ZM126.669 438.545H126.629C122.509 438.545 120.069 439.665 119.309 441.945H134.029C133.389 439.665 130.949 438.545 126.669 438.545ZM180.783 455.425C171.343 455.425 166.663 453.065 166.663 448.265V448.025H176.063C176.063 449.865 177.943 450.785 181.703 450.785H181.783C183.343 450.785 184.583 450.665 185.463 450.465C186.343 450.265 186.903 450.065 187.143 449.825C187.343 449.545 187.463 449.265 187.463 448.865V448.785C187.463 448.225 187.143 447.785 186.543 447.505C185.903 447.225 184.623 447.065 182.623 447.025L178.703 446.945C176.423 446.905 174.463 446.705 172.823 446.305C171.223 445.945 169.983 445.425 169.143 444.825C168.343 444.185 167.743 443.545 167.383 442.865C167.023 442.185 166.863 441.465 166.863 440.665V440.425C166.863 439.745 166.943 439.105 167.103 438.545C167.303 438.025 167.663 437.425 168.263 436.865C168.863 436.305 169.623 435.825 170.623 435.425C171.583 435.065 172.943 434.745 174.663 434.505C176.383 434.265 178.423 434.145 180.743 434.145H182.383C191.583 434.145 196.183 436.225 196.183 440.465V440.745H186.863C186.823 440.465 186.743 440.265 186.623 440.065C186.543 439.905 186.303 439.665 185.983 439.425C185.663 439.185 185.103 439.025 184.343 438.865C183.543 438.745 182.583 438.665 181.463 438.665H181.423C179.343 438.665 177.943 438.785 177.223 439.025C176.543 439.225 176.183 439.625 176.183 440.185V440.225C176.183 440.745 176.503 441.145 177.143 441.385C177.823 441.665 179.023 441.825 180.783 441.865L184.703 441.945C188.023 441.985 190.583 442.265 192.383 442.785C194.223 443.305 195.463 443.985 196.063 444.825C196.663 445.665 196.983 446.825 196.983 448.265V448.505C196.983 449.505 196.783 450.425 196.383 451.185C195.983 451.945 195.303 452.665 194.303 453.345C193.303 454.025 191.823 454.545 189.823 454.905C187.823 455.265 185.383 455.425 182.463 455.425H180.783ZM210.481 429.105V430.185H204.921V427.265C204.921 426.265 205.201 425.385 205.761 424.665C206.321 423.905 207.281 423.545 208.681 423.545H208.881C209.401 423.545 209.881 423.585 210.361 423.665C210.841 423.785 211.241 423.865 211.601 423.985C211.921 424.065 212.601 424.305 213.681 424.625C214.841 425.025 215.561 425.185 215.881 425.185C216.281 425.185 216.481 424.905 216.481 424.345V423.225H222.041V426.145C222.041 428.665 220.801 429.945 218.361 429.945H218.121C217.121 429.945 215.521 429.585 213.321 428.865C212.161 428.465 211.441 428.265 211.121 428.265C210.721 428.265 210.481 428.545 210.481 429.105ZM227.401 448.945H228.521V454.585H221.521C219.641 454.585 218.561 453.625 218.241 451.745C217.601 452.545 216.521 453.265 214.961 453.945C213.401 454.625 211.321 454.945 208.641 454.945H208.121C204.841 454.945 202.441 454.305 200.841 453.025C199.241 451.745 198.481 450.145 198.481 448.185V447.905C198.481 446.025 199.121 444.585 200.481 443.625C201.841 442.625 204.081 442.025 207.201 441.745L216.721 440.825C217.561 440.745 218.001 440.385 218.001 439.745C218.001 439.425 217.921 439.145 217.761 438.945C217.601 438.745 217.081 438.545 216.241 438.345C215.401 438.185 214.161 438.065 212.601 438.065L198.481 438.105V433.305H213.481C215.801 433.305 217.801 433.425 219.441 433.705C221.081 434.025 222.361 434.345 223.241 434.745C224.121 435.185 224.801 435.705 225.281 436.345C225.761 437.025 226.081 437.585 226.161 438.105C226.281 438.625 226.321 439.265 226.321 439.985V447.905C226.321 448.625 226.681 448.945 227.401 448.945ZM218.001 445.385V444.745L209.801 445.985C208.641 446.185 207.801 446.385 207.361 446.665C206.881 446.945 206.641 447.345 206.641 447.905V447.945C206.641 448.585 206.961 449.145 207.561 449.625C208.121 450.065 209.121 450.305 210.441 450.305C212.641 450.305 214.481 449.825 215.881 448.825C217.321 447.825 218.001 446.665 218.001 445.385ZM248.794 455.065H245.914C243.474 455.065 241.274 454.825 239.394 454.385C237.514 453.945 235.994 453.425 234.834 452.745C233.674 452.065 232.754 451.225 232.034 450.305C231.274 449.345 230.794 448.425 230.514 447.505C230.234 446.585 230.114 445.625 230.114 444.625V443.945C230.114 442.945 230.234 442.025 230.514 441.105C230.794 440.185 231.274 439.305 231.994 438.385C232.714 437.425 233.634 436.665 234.794 435.985C235.954 435.305 237.474 434.785 239.354 434.385C241.234 433.945 243.434 433.745 245.874 433.745H248.794C259.274 433.745 264.514 437.145 264.514 443.945V444.625C264.514 451.585 259.274 455.065 248.794 455.065ZM247.354 449.625C250.194 449.625 252.234 449.105 253.434 448.065C254.674 447.065 255.274 445.825 255.274 444.425V444.225C255.274 442.785 254.674 441.545 253.434 440.585C252.234 439.585 250.194 439.105 247.394 439.105H247.354C244.474 439.105 242.434 439.585 241.234 440.545C240.034 441.505 239.434 442.745 239.434 444.225V444.425C239.434 445.825 240.034 447.065 241.274 448.065C242.474 449.105 244.514 449.625 247.354 449.625Z" fill="white" fill-opacity="0.7"/>
    <path d="M64.2309 510.545H63.1809C59.2309 510.545 55.7309 510.145 52.6309 509.395C49.5809 508.595 47.1309 507.595 45.2809 506.395C43.4809 505.195 41.9809 503.795 40.8309 502.195C39.6809 500.545 38.8809 498.995 38.4309 497.545C38.0309 496.045 37.8309 494.545 37.8309 492.995V491.695C37.8309 490.145 37.9809 488.695 38.3309 487.245C38.6809 485.845 39.4309 484.295 40.5809 482.695C41.7309 481.095 43.2309 479.695 45.0309 478.545C46.8309 477.345 49.3309 476.395 52.5309 475.595C55.6809 474.795 59.3809 474.445 63.5809 474.445H65.7809C69.8309 474.445 73.4309 474.745 76.5309 475.345C79.6309 475.995 82.0809 476.745 83.8309 477.695C85.5809 478.595 87.0309 479.695 88.1309 480.945C89.2809 482.245 90.0309 483.395 90.3809 484.445C90.7809 485.495 90.9809 486.545 90.9809 487.645V487.695H78.3309C77.0309 484.395 72.5309 482.745 64.7809 482.745C55.1309 482.745 50.2809 485.895 50.2809 492.145V492.695C50.2809 495.245 51.4809 497.445 53.8309 499.295C56.2309 501.145 59.8309 502.045 64.6809 502.045C66.7809 502.045 68.7309 501.895 70.4809 501.645C72.2809 501.345 73.6809 500.995 74.7309 500.595C75.7809 500.195 76.6809 499.745 77.4309 499.245C78.1309 498.795 78.6809 498.345 78.9809 497.995C79.2309 497.595 79.3809 497.295 79.3809 497.095V496.995H64.4309V490.395H91.2809V509.945H82.6809C82.6809 509.945 82.6309 506.795 82.5809 504.495C78.7309 508.545 72.6309 510.545 64.2309 510.545ZM223.305 494.995C224.555 496.345 225.205 498.095 225.205 500.245V509.945H214.055V503.645C214.055 501.495 213.505 499.895 212.355 498.945C211.255 497.945 209.355 497.445 206.655 497.445H107.005V509.945H95.9551V474.695H209.655C219.905 474.695 225.055 477.745 225.055 483.845V484.395C225.055 488.145 222.855 490.695 218.455 492.145C220.455 492.695 222.105 493.645 223.305 494.995ZM213.455 486.145V486.095C213.455 485.095 213.105 484.295 212.355 483.645C211.655 483.045 210.505 482.695 209.005 482.695H107.005V489.645H209.005C210.505 489.645 211.655 489.295 212.355 488.695C213.105 488.045 213.455 487.195 213.455 486.145ZM263.073 475.345L281.673 509.895H269.923L266.673 503.595H241.723L238.473 509.895H226.773L245.323 475.345H263.073ZM245.773 495.795H262.673L256.073 483.095H252.323L245.773 495.795ZM291.754 509.995V483.295H275.354V474.995H320.254V483.295H303.804V509.995H291.754ZM334.901 475.045V509.945H323.001V475.045H334.901ZM361.172 510.595C357.372 510.595 354.022 510.295 351.222 509.695C348.372 509.095 346.172 508.395 344.622 507.545C343.122 506.695 341.872 505.645 340.972 504.445C340.072 503.245 339.472 502.145 339.222 501.195C338.972 500.245 338.872 499.195 338.872 498.095V497.595H351.322C351.572 501.295 354.272 503.145 361.572 503.145H364.322C366.722 503.145 367.722 502.995 369.322 502.795C370.872 502.595 372.022 502.345 372.722 501.945C373.472 501.545 373.922 501.195 374.172 500.795C374.422 500.395 374.522 499.945 374.522 499.395C374.522 498.645 374.322 498.045 373.922 497.595C373.522 497.195 372.522 496.795 371.022 496.445C369.522 496.145 367.372 495.945 364.522 495.895L360.772 495.795L357.972 495.745C345.572 495.445 339.372 491.995 339.372 485.495V485.045C339.372 483.945 339.522 482.895 339.822 481.945C340.122 480.995 340.722 480.045 341.672 479.045C342.572 478.095 343.772 477.295 345.272 476.645C346.772 475.995 348.772 475.445 351.322 475.045C353.822 474.595 356.772 474.395 360.122 474.395H363.672C367.122 474.395 370.222 474.595 372.872 475.045C375.572 475.495 377.672 476.045 379.272 476.745C380.872 477.445 382.172 478.295 383.172 479.295C384.172 480.295 384.872 481.295 385.222 482.245C385.622 483.245 385.822 484.295 385.822 485.445V485.895H373.422C373.322 485.545 373.222 485.195 373.122 484.945C373.022 484.695 372.722 484.345 372.272 483.895C371.822 483.445 371.272 483.095 370.522 482.795C369.822 482.545 368.722 482.295 367.322 482.045C365.922 481.845 364.822 481.745 362.922 481.745H361.172C358.272 481.745 356.472 481.895 354.922 482.195C353.422 482.545 352.472 482.895 352.172 483.245C351.822 483.595 351.672 484.095 351.672 484.745C351.672 485.345 351.822 485.795 352.222 486.195C352.572 486.545 353.422 486.895 354.772 487.245C356.122 487.545 358.022 487.695 360.472 487.745L363.272 487.795L366.872 487.845C374.022 487.945 379.122 488.845 382.272 490.495C385.472 492.145 387.022 494.695 387.022 498.245V498.895C387.022 500.195 386.872 501.345 386.572 502.345C386.272 503.345 385.622 504.395 384.672 505.495C383.722 506.545 382.472 507.445 380.872 508.145C379.272 508.895 377.122 509.445 374.372 509.895C371.622 510.395 368.372 510.595 364.672 510.595H361.172Z" fill="#7678ED"/>
    <path d="M266.281 461.195L260.881 468.945H250.131L254.681 461.195H266.281Z" fill="#F18701"/>
    <circle cx="219.963" cy="356.272" r="2.865" fill="white" fill-opacity="0.63"/>
    <circle cx="236.199" cy="356.272" r="2.865" fill="white" fill-opacity="0.63"/>
    <circle cx="203.728" cy="356.272" r="2.865" fill="white" fill-opacity="0.63"/>
    <path d="M356.814 354.482L361.269 358.38L356.814 362.278" stroke="white" stroke-opacity="0.63" stroke-linecap="round" stroke-linejoin="round"/>
    <path d="M276.629 358.937H360.156" stroke="white" stroke-opacity="0.63" stroke-linecap="round" stroke-linejoin="round"/>
    <path d="M83.0586 354.682L78.6038 358.58L83.0586 362.477" stroke="white" stroke-opacity="0.63" stroke-linecap="round" stroke-linejoin="round"/>
    <path d="M163.244 359.136H79.7172" stroke="white" stroke-opacity="0.63" stroke-linecap="round" stroke-linejoin="round"/>
    <path d="M75.0649 43.208C71.9449 43.208 69.1889 42.896 66.7449 42.324C64.3009 41.752 62.3769 41.024 60.9729 40.14C59.5689 39.256 58.3729 38.216 57.4369 36.968C56.5529 35.72 55.9289 34.524 55.6169 33.328C55.3049 32.184 55.1489 30.936 55.1489 29.688V28.7C55.1489 27.452 55.3049 26.256 55.6169 25.06C55.9289 23.916 56.5529 22.772 57.4369 21.524C58.3209 20.328 59.5169 19.34 60.9209 18.456C62.3769 17.572 64.3009 16.896 66.6929 16.324C69.1369 15.804 71.8929 15.492 75.0129 15.492H78.0289C81.4089 15.492 84.4249 15.804 86.9729 16.376C89.5209 16.948 91.4969 17.676 92.8489 18.508C94.2009 19.34 95.2929 20.328 96.1769 21.42C97.0089 22.564 97.5289 23.552 97.7889 24.384C97.9969 25.268 98.1009 26.1 98.1009 26.984V27.088H85.9329C85.1529 23.968 81.9809 22.356 76.4689 22.356H76.3129C73.1409 22.356 70.8529 22.98 69.3969 24.228C67.9409 25.424 67.2649 26.984 67.2649 28.856V29.22C67.2649 31.196 67.9929 32.86 69.3969 34.212C70.8529 35.564 73.1929 36.24 76.3129 36.24H76.4689C81.9289 36.24 85.1009 34.628 85.9329 31.404H98.1009V31.508C98.1009 32.392 97.9969 33.276 97.7889 34.16C97.5809 34.992 97.0609 36.032 96.2809 37.176C95.4489 38.32 94.3569 39.308 93.0049 40.14C91.6529 40.972 89.6769 41.7 87.0769 42.272C84.4769 42.896 81.4609 43.208 77.9769 43.208H75.0649ZM142.286 42.636H130.534V38.06C129.962 38.58 129.546 38.944 129.338 39.1C129.13 39.308 128.506 39.724 127.466 40.348C126.478 41.024 125.542 41.492 124.658 41.804C123.826 42.116 122.63 42.428 121.174 42.74C119.718 43.052 118.21 43.208 116.65 43.208H116.234C111.71 43.208 108.33 42.168 106.042 40.036C103.754 37.956 102.662 35.512 102.662 32.704V16.376H114.622V29.324C114.622 31.352 115.194 32.964 116.442 34.108C117.638 35.304 119.51 35.876 121.954 35.876C124.502 35.876 126.582 35.252 128.142 33.952C129.65 32.652 130.43 30.884 130.43 28.752V16.376H142.286V42.636ZM168.558 15.7H249.054V22.668C249.054 22.668 165.022 22.512 163.67 22.668C162.318 22.824 160.446 23.292 159.406 24.54C158.366 25.736 157.846 27.296 157.846 29.064V42.74H146.874V16.272H157.794V20.952C158.21 20.276 158.834 19.6 159.51 18.872C160.186 18.196 161.382 17.52 163.046 16.792C164.71 16.064 166.53 15.7 168.558 15.7ZM269.184 43.624C256.912 43.624 250.828 40.556 250.828 34.316V34.004H263.048C263.048 36.396 265.492 37.592 270.38 37.592H270.484C272.512 37.592 274.124 37.436 275.268 37.176C276.412 36.916 277.14 36.656 277.452 36.344C277.712 35.98 277.868 35.616 277.868 35.096V34.992C277.868 34.264 277.452 33.692 276.672 33.328C275.84 32.964 274.176 32.756 271.576 32.704L266.48 32.6C263.516 32.548 260.968 32.288 258.836 31.768C256.756 31.3 255.144 30.624 254.052 29.844C253.012 29.012 252.232 28.18 251.764 27.296C251.296 26.412 251.088 25.476 251.088 24.436V24.124C251.088 23.24 251.192 22.408 251.4 21.68C251.66 21.004 252.128 20.224 252.908 19.496C253.688 18.768 254.676 18.144 255.976 17.624C257.224 17.156 258.992 16.74 261.228 16.428C263.464 16.116 266.116 15.96 269.132 15.96H271.264C283.224 15.96 289.204 18.664 289.204 24.176V24.54H277.088C277.036 24.176 276.932 23.916 276.776 23.656C276.672 23.448 276.36 23.136 275.944 22.824C275.528 22.512 274.8 22.304 273.812 22.096C272.772 21.94 271.524 21.836 270.068 21.836H270.016C267.312 21.836 265.492 21.992 264.556 22.304C263.672 22.564 263.204 23.084 263.204 23.812V23.864C263.204 24.54 263.62 25.06 264.452 25.372C265.336 25.736 266.896 25.944 269.184 25.996L274.28 26.1C278.596 26.152 281.924 26.516 284.264 27.192C286.656 27.868 288.268 28.752 289.048 29.844C289.828 30.936 290.244 32.444 290.244 34.316V34.628C290.244 35.928 289.984 37.124 289.464 38.112C288.944 39.1 288.06 40.036 286.76 40.92C285.46 41.804 283.536 42.48 280.936 42.948C278.336 43.416 275.164 43.624 271.368 43.624H269.184ZM316.787 43.156H313.043C309.871 43.156 307.011 42.844 304.567 42.272C302.123 41.7 300.147 41.024 298.639 40.14C297.131 39.256 295.935 38.164 294.999 36.968C294.011 35.72 293.387 34.524 293.023 33.328C292.659 32.132 292.503 30.884 292.503 29.584V28.7C292.503 27.4 292.659 26.204 293.023 25.008C293.387 23.812 294.011 22.668 294.947 21.472C295.883 20.224 297.079 19.236 298.587 18.352C300.095 17.468 302.071 16.792 304.515 16.272C306.959 15.7 309.819 15.44 312.991 15.44H316.787C330.411 15.44 337.223 19.86 337.223 28.7V29.584C337.223 38.632 330.411 43.156 316.787 43.156ZM314.915 36.084C318.607 36.084 321.259 35.408 322.819 34.056C324.431 32.756 325.211 31.144 325.211 29.324V29.064C325.211 27.192 324.431 25.58 322.819 24.332C321.259 23.032 318.607 22.408 314.967 22.408H314.915C311.171 22.408 308.519 23.032 306.959 24.28C305.399 25.528 304.619 27.14 304.619 29.064V29.324C304.619 31.144 305.399 32.756 307.011 34.056C308.571 35.408 311.223 36.084 314.915 36.084ZM357.964 43.624C345.692 43.624 339.608 40.556 339.608 34.316V34.004H351.828C351.828 36.396 354.272 37.592 359.16 37.592H359.264C361.292 37.592 362.904 37.436 364.048 37.176C365.192 36.916 365.92 36.656 366.232 36.344C366.492 35.98 366.648 35.616 366.648 35.096V34.992C366.648 34.264 366.232 33.692 365.452 33.328C364.62 32.964 362.956 32.756 360.356 32.704L355.26 32.6C352.296 32.548 349.748 32.288 347.616 31.768C345.536 31.3 343.924 30.624 342.832 29.844C341.792 29.012 341.012 28.18 340.544 27.296C340.076 26.412 339.868 25.476 339.868 24.436V24.124C339.868 23.24 339.972 22.408 340.18 21.68C340.44 21.004 340.908 20.224 341.688 19.496C342.468 18.768 343.456 18.144 344.756 17.624C346.004 17.156 347.772 16.74 350.008 16.428C352.244 16.116 354.896 15.96 357.912 15.96H360.044C372.004 15.96 377.984 18.664 377.984 24.176V24.54H365.868C365.816 24.176 365.712 23.916 365.556 23.656C365.452 23.448 365.14 23.136 364.724 22.824C364.308 22.512 363.58 22.304 362.592 22.096C361.552 21.94 360.304 21.836 358.848 21.836H358.796C356.092 21.836 354.272 21.992 353.336 22.304C352.452 22.564 351.984 23.084 351.984 23.812V23.864C351.984 24.54 352.4 25.06 353.232 25.372C354.116 25.736 355.676 25.944 357.964 25.996L363.06 26.1C367.376 26.152 370.704 26.516 373.044 27.192C375.436 27.868 377.048 28.752 377.828 29.844C378.608 30.936 379.024 32.444 379.024 34.316V34.628C379.024 35.928 378.764 37.124 378.244 38.112C377.724 39.1 376.84 40.036 375.54 40.92C374.24 41.804 372.316 42.48 369.716 42.948C367.116 43.416 363.944 43.624 360.148 43.624H357.964Z" fill="#F18701"/>
    <g style="mix-blend-mode:lighten">
    <rect x="0.566406" y="78.207" width="437.434" height="252.283" rx="40" fill="url(#paint0_linear_204_337)"/>
    </g>
    <path d="M158.495 100.075H164.17V101.9C165.945 100.475 168.27 99.775 171.17 99.775H171.62C173.145 99.775 174.445 99.95 175.545 100.275C176.645 100.6 177.495 101.05 178.12 101.65C178.745 102.25 179.195 102.925 179.495 103.65C179.77 104.375 179.92 105.2 179.92 106.1V106.55C179.92 107.425 179.77 108.225 179.47 108.975C179.17 109.7 178.72 110.375 178.07 111C177.42 111.625 176.545 112.125 175.42 112.475C174.295 112.825 172.97 113 171.445 113H171.02C169.27 113 167.795 112.75 166.595 112.275C165.395 111.8 164.595 111.325 164.17 110.925V117.1H158.495V100.075ZM164.17 106.3V106.4C164.17 107.275 164.62 108.025 165.52 108.7C166.395 109.35 167.645 109.675 169.27 109.675H169.395C171.07 109.675 172.27 109.35 172.995 108.7C173.72 108.075 174.095 107.3 174.095 106.4V106.3C174.095 105.35 173.745 104.575 173.02 103.975C172.295 103.35 171.07 103.05 169.395 103.05H169.27C167.595 103.05 166.32 103.35 165.47 104C164.62 104.65 164.17 105.4 164.17 106.3ZM195.219 100.85H200.794L193.769 115.025C193.094 116.35 192.394 117.3 191.669 117.9C190.944 118.5 189.994 118.8 188.819 118.8H151.469V114.85H187.119C187.544 114.85 187.744 114.7 187.744 114.425C187.744 114.275 187.544 113.8 187.119 113L180.719 100.85H186.719L191.019 109.85L195.219 100.85ZM207.887 112.875C205.612 112.875 204.487 111.7 204.487 109.3V103.75H201.812V100.275H204.487V96.6H210.112V100.275H212.812V103.75H210.112V108.325C210.112 108.7 210.187 108.975 210.337 109.15C210.487 109.325 210.787 109.425 211.262 109.425H212.812V112.875H207.887ZM215.011 112.95V95.5H220.686V102.45C222.436 100.85 224.686 100.05 227.461 100.05H227.636C229.861 100.05 231.536 100.525 232.661 101.5C233.786 102.45 234.336 103.625 234.336 104.975V112.95H228.586V106.7C228.586 105.7 228.286 104.925 227.686 104.375C227.061 103.85 226.136 103.575 224.911 103.575C223.636 103.575 222.611 103.875 221.836 104.5C221.086 105.125 220.686 105.95 220.686 107V112.95H215.011ZM247.686 113.075H245.886C244.361 113.075 242.986 112.925 241.811 112.65C240.636 112.375 239.686 112.05 238.961 111.625C238.236 111.2 237.661 110.675 237.211 110.1C236.736 109.5 236.436 108.925 236.261 108.35C236.086 107.775 236.011 107.175 236.011 106.55V106.125C236.011 105.5 236.086 104.925 236.261 104.35C236.436 103.775 236.736 103.225 237.186 102.65C237.636 102.05 238.211 101.575 238.936 101.15C239.661 100.725 240.611 100.4 241.786 100.15C242.961 99.875 244.336 99.75 245.861 99.75H247.686C254.236 99.75 257.511 101.875 257.511 106.125V106.55C257.511 110.9 254.236 113.075 247.686 113.075ZM246.786 109.675C248.561 109.675 249.836 109.35 250.586 108.7C251.361 108.075 251.736 107.3 251.736 106.425V106.3C251.736 105.4 251.361 104.625 250.586 104.025C249.836 103.4 248.561 103.1 246.811 103.1H246.786C244.986 103.1 243.711 103.4 242.961 104C242.211 104.6 241.836 105.375 241.836 106.3V106.425C241.836 107.3 242.211 108.075 242.986 108.7C243.736 109.35 245.011 109.675 246.786 109.675ZM259.232 100.275H264.857V102.425C266.632 100.8 268.907 100 271.682 100H271.882C274.107 100 275.782 100.475 276.882 101.425C278.007 102.4 278.557 103.55 278.557 104.925V112.875H272.807V106.65C272.807 105.65 272.507 104.875 271.907 104.325C271.282 103.775 270.357 103.5 269.132 103.5C267.857 103.5 266.832 103.825 266.057 104.45C265.307 105.075 264.907 105.9 264.907 106.925V112.875H259.232V100.275Z" fill="white"/>
    <g clip-path="url(#clip0_204_337)" filter="url(#filter0_d_204_337)">
    <path fill-rule="evenodd" clip-rule="evenodd" d="M234.532 258.259C231.949 258.259 229.858 256.137 229.858 253.514C229.858 250.891 231.949 248.774 234.532 248.774C237.115 248.774 239.206 250.891 239.206 253.514C239.206 256.137 237.115 258.259 234.532 258.259ZM220.211 266.607C247.427 266.607 245.728 254.624 245.728 254.624L245.696 242.21L219.729 242.21L219.729 238.483L256.008 238.483C256.008 238.483 273.422 240.492 273.422 212.612C273.422 184.732 258.227 185.715 258.227 185.715L249.153 185.715L249.153 198.657C249.153 198.657 249.641 214.084 234.2 214.084L208.441 214.084C208.441 214.084 193.97 213.852 193.97 228.29L193.97 252.158C193.97 252.158 191.773 266.607 220.211 266.607ZM205.123 166.679C207.707 166.679 209.792 168.801 209.792 171.424C209.792 174.047 207.707 176.164 205.123 176.164C202.54 176.164 200.45 174.047 200.45 171.424C200.45 168.801 202.54 166.679 205.123 166.679ZM219.439 158.331C192.228 158.331 193.927 170.314 193.927 170.314L193.959 182.727L219.927 182.727L219.927 186.455L183.642 186.455C183.642 186.455 166.229 184.446 166.229 212.326C166.229 240.206 181.428 239.223 181.428 239.223L190.497 239.223L190.497 226.281C190.497 226.281 190.009 210.854 205.456 210.854L231.209 210.854C231.209 210.854 245.68 211.086 245.68 196.648L245.68 172.78C245.68 172.78 247.878 158.331 219.439 158.331Z" fill="white"/>
    </g>
    <defs>
    <filter id="filter0_d_204_337" x="166.229" y="158.331" width="115.193" height="116.276" filterUnits="userSpaceOnUse" color-interpolation-filters="sRGB">
    <feFlood flood-opacity="0" result="BackgroundImageFix"/>
    <feColorMatrix in="SourceAlpha" type="matrix" values="0 0 0 0 0 0 0 0 0 0 0 0 0 0 0 0 0 0 127 0" result="hardAlpha"/>
    <feOffset dx="4" dy="4"/>
    <feGaussianBlur stdDeviation="2"/>
    <feColorMatrix type="matrix" values="0 0 0 0 0 0 0 0 0 0 0 0 0 0 0 0 0 0 0.25 0"/>
    <feBlend mode="normal" in2="BackgroundImageFix" result="effect1_dropShadow_204_337"/>
    <feBlend mode="normal" in="SourceGraphic" in2="effect1_dropShadow_204_337" result="shape"/>
    </filter>
    <linearGradient id="paint0_linear_204_337" x1="219.284" y1="78.207" x2="151.573" y2="538.036" gradientUnits="userSpaceOnUse">
    <stop stop-color="#F18701"/>
    <stop offset="0.542292" stop-color="#7678ED" stop-opacity="0.7"/>
    </linearGradient>
    <clipPath id="clip0_204_337">
    <rect width="107.193" height="108.276" fill="white" transform="translate(166.229 158.331)"/>
    </clipPath>
    </defs>
    </svg>
    