<svg width="360" height="96" viewBox="0 0 360 96" fill="none" xmlns="http://www.w3.org/2000/svg">
<path d="M27.08 19.32H35.32V46.56H26.2V36.72C25.76 37.2 25.24 37.6 24.56 38.04C23.92 38.44 22.76 38.88 21.08 39.32C19.44 39.76 17.56 40 15.44 40H15.12C10.32 40 6.76 39.04 4.44 37.12C2.16 35.2 1.04 32.68 1.04 29.6V28.88C1.04 25.96 2.12 23.52 4.32 21.68C6.52 19.8 9.96 18.84 14.64 18.84H15.2C19.72 18.84 23.4 19.92 26.28 22.08C26.64 21.48 26.92 20.56 27.08 19.32ZM26.2 29.28C26.2 27.88 25.48 26.68 23.96 25.64C22.48 24.64 20.44 24.12 17.88 24.12H17.68C15 24.12 13.12 24.64 12 25.6C10.92 26.56 10.36 27.8 10.36 29.32V29.48C10.36 30.88 10.92 32.12 12.12 33.16C13.32 34.2 15.2 34.72 17.76 34.72H17.96C20.52 34.72 22.52 34.2 24 33.12C25.48 32.04 26.2 30.84 26.2 29.44V29.28ZM69.3184 39.72H60.2784V36.2C59.8384 36.6 59.5184 36.88 59.3584 37C59.1984 37.16 58.7184 37.48 57.9184 37.96C57.1584 38.48 56.4384 38.84 55.7584 39.08C55.1184 39.32 54.1984 39.56 53.0784 39.8C51.9584 40.04 50.7984 40.16 49.5984 40.16H49.2784C45.7984 40.16 43.1984 39.36 41.4384 37.72C39.6784 36.12 38.8384 34.24 38.8384 32.08V19.52H48.0384V29.48C48.0384 31.04 48.4784 32.28 49.4384 33.16C50.3584 34.08 51.7984 34.52 53.6784 34.52C55.6384 34.52 57.2384 34.04 58.4384 33.04C59.5984 32.04 60.1984 30.68 60.1984 29.04V19.52H69.3184V39.72ZM105.728 32.56C105.728 33.2 105.648 33.8 105.448 34.4C105.248 35.04 104.848 35.68 104.208 36.4C103.528 37.16 102.688 37.76 101.648 38.32C100.608 38.84 99.1678 39.32 97.2478 39.68C95.3678 40.04 93.1678 40.2 90.6478 40.2H88.3278C85.4878 40.2 83.0478 39.92 80.9678 39.36C78.8878 38.8 77.2878 38 76.1278 37C75.0078 36 74.1678 34.92 73.6078 33.76C73.0878 32.6 72.8478 31.28 72.8478 29.88V29.08C72.8478 27.68 73.0878 26.44 73.5678 25.28C74.0478 24.12 74.8478 23.08 75.9678 22.08C77.0478 21.08 78.6478 20.32 80.6878 19.76C82.7678 19.2 85.2078 18.92 88.0878 18.92H90.5678C100.768 18.92 105.848 22.52 105.848 29.8V31.16H81.7678C82.3678 33.8 84.9678 35.12 89.5678 35.12H89.6078C90.7278 35.12 91.7678 35.04 92.6478 34.88C93.5278 34.72 94.2078 34.56 94.6878 34.32C95.2078 34.12 95.6078 33.88 95.9278 33.64C96.2078 33.36 96.4478 33.16 96.5278 33C96.6478 32.84 96.7278 32.68 96.7278 32.52H105.728V32.56ZM89.2878 23.6H89.2478C85.1278 23.6 82.6878 24.72 81.9278 27H96.6478C96.0078 24.72 93.5678 23.6 89.2878 23.6ZM143.403 40.48C133.963 40.48 129.283 38.12 129.283 33.32V33.08H138.683C138.683 34.92 140.563 35.84 144.323 35.84H144.403C145.963 35.84 147.203 35.72 148.083 35.52C148.963 35.32 149.523 35.12 149.763 34.88C149.963 34.6 150.083 34.32 150.083 33.92V33.84C150.083 33.28 149.763 32.84 149.163 32.56C148.523 32.28 147.243 32.12 145.243 32.08L141.323 32C139.043 31.96 137.083 31.76 135.443 31.36C133.843 31 132.603 30.48 131.763 29.88C130.963 29.24 130.363 28.6 130.003 27.92C129.643 27.24 129.483 26.52 129.483 25.72V25.48C129.483 24.8 129.563 24.16 129.723 23.6C129.923 23.08 130.283 22.48 130.883 21.92C131.483 21.36 132.243 20.88 133.243 20.48C134.203 20.12 135.563 19.8 137.283 19.56C139.003 19.32 141.043 19.2 143.363 19.2H145.003C154.203 19.2 158.803 21.28 158.803 25.52V25.8H149.483C149.443 25.52 149.363 25.32 149.243 25.12C149.163 24.96 148.923 24.72 148.603 24.48C148.283 24.24 147.723 24.08 146.963 23.92C146.163 23.8 145.203 23.72 144.083 23.72H144.043C141.963 23.72 140.563 23.84 139.843 24.08C139.163 24.28 138.803 24.68 138.803 25.24V25.28C138.803 25.8 139.123 26.2 139.763 26.44C140.443 26.72 141.643 26.88 143.403 26.92L147.323 27C150.643 27.04 153.203 27.32 155.003 27.84C156.843 28.36 158.083 29.04 158.683 29.88C159.283 30.72 159.603 31.88 159.603 33.32V33.56C159.603 34.56 159.403 35.48 159.003 36.24C158.603 37 157.923 37.72 156.923 38.4C155.923 39.08 154.443 39.6 152.443 39.96C150.443 40.32 148.003 40.48 145.083 40.48H143.403ZM173.101 14.16V15.24H167.541V12.32C167.541 11.32 167.821 10.44 168.381 9.72C168.941 8.96 169.901 8.6 171.301 8.6H171.501C172.021 8.6 172.501 8.64 172.981 8.72C173.461 8.84 173.861 8.92 174.221 9.04C174.541 9.12 175.221 9.36 176.301 9.68C177.461 10.08 178.181 10.24 178.501 10.24C178.901 10.24 179.101 9.96 179.101 9.4V8.28H184.661V11.2C184.661 13.72 183.421 15 180.981 15H180.741C179.741 15 178.141 14.64 175.941 13.92C174.781 13.52 174.061 13.32 173.741 13.32C173.341 13.32 173.101 13.6 173.101 14.16ZM190.021 34H191.141V39.64H184.141C182.261 39.64 181.181 38.68 180.861 36.8C180.221 37.6 179.141 38.32 177.581 39C176.021 39.68 173.941 40 171.261 40H170.741C167.461 40 165.061 39.36 163.461 38.08C161.861 36.8 161.101 35.2 161.101 33.24V32.96C161.101 31.08 161.741 29.64 163.101 28.68C164.461 27.68 166.701 27.08 169.821 26.8L179.341 25.88C180.181 25.8 180.621 25.44 180.621 24.8C180.621 24.48 180.541 24.2 180.381 24C180.221 23.8 179.701 23.6 178.861 23.4C178.021 23.24 176.781 23.12 175.221 23.12L161.101 23.16V18.36H176.101C178.421 18.36 180.421 18.48 182.061 18.76C183.701 19.08 184.981 19.4 185.861 19.8C186.741 20.24 187.421 20.76 187.901 21.4C188.381 22.08 188.701 22.64 188.781 23.16C188.901 23.68 188.941 24.32 188.941 25.04V32.96C188.941 33.68 189.301 34 190.021 34ZM180.621 30.44V29.8L172.421 31.04C171.261 31.24 170.421 31.44 169.981 31.72C169.501 32 169.261 32.4 169.261 32.96V33C169.261 33.64 169.581 34.2 170.181 34.68C170.741 35.12 171.741 35.36 173.061 35.36C175.261 35.36 177.101 34.88 178.501 33.88C179.941 32.88 180.621 31.72 180.621 30.44ZM211.413 40.12H208.533C206.093 40.12 203.893 39.88 202.013 39.44C200.133 39 198.613 38.48 197.453 37.8C196.293 37.12 195.373 36.28 194.653 35.36C193.893 34.4 193.413 33.48 193.133 32.56C192.853 31.64 192.733 30.68 192.733 29.68V29C192.733 28 192.853 27.08 193.133 26.16C193.413 25.24 193.893 24.36 194.613 23.44C195.333 22.48 196.253 21.72 197.413 21.04C198.573 20.36 200.093 19.84 201.973 19.44C203.853 19 206.053 18.8 208.493 18.8H211.413C221.893 18.8 227.133 22.2 227.133 29V29.68C227.133 36.64 221.893 40.12 211.413 40.12ZM209.973 34.68C212.813 34.68 214.853 34.16 216.053 33.12C217.293 32.12 217.893 30.88 217.893 29.48V29.28C217.893 27.84 217.293 26.6 216.053 25.64C214.853 24.64 212.813 24.16 210.013 24.16H209.973C207.093 24.16 205.053 24.64 203.853 25.6C202.653 26.56 202.053 27.8 202.053 29.28V29.48C202.053 30.88 202.653 32.12 203.893 33.12C205.093 34.16 207.133 34.68 209.973 34.68Z" fill="white" fill-opacity="0.7"/>
<path d="M26.85 95.6H25.8C21.85 95.6 18.35 95.2 15.25 94.45C12.2 93.65 9.75 92.65 7.9 91.45C6.1 90.25 4.6 88.85 3.45 87.25C2.3 85.6 1.5 84.05 1.05 82.6C0.65 81.1 0.45 79.6 0.45 78.05V76.75C0.45 75.2 0.6 73.75 0.95 72.3C1.3 70.9 2.05 69.35 3.2 67.75C4.35 66.15 5.85 64.75 7.65 63.6C9.45 62.4 11.95 61.45 15.15 60.65C18.3 59.85 22 59.5 26.2 59.5H28.4C32.45 59.5 36.05 59.8 39.15 60.4C42.25 61.05 44.7 61.8 46.45 62.75C48.2 63.65 49.65 64.75 50.75 66C51.9 67.3 52.65 68.45 53 69.5C53.4 70.55 53.6 71.6 53.6 72.7V72.75H40.95C39.65 69.45 35.15 67.8 27.4 67.8C17.75 67.8 12.9 70.95 12.9 77.2V77.75C12.9 80.3 14.1 82.5 16.45 84.35C18.85 86.2 22.45 87.1 27.3 87.1C29.4 87.1 31.35 86.95 33.1 86.7C34.9 86.4 36.3 86.05 37.35 85.65C38.4 85.25 39.3 84.8 40.05 84.3C40.75 83.85 41.3 83.4 41.6 83.05C41.85 82.65 42 82.35 42 82.15V82.05H27.05V75.45H53.9V95H45.3C45.3 95 45.25 91.85 45.2 89.55C41.35 93.6 35.25 95.6 26.85 95.6ZM185.924 80.05C187.174 81.4 187.824 83.15 187.824 85.3V95H176.674V88.7C176.674 86.55 176.124 84.95 174.974 84C173.874 83 171.974 82.5 169.274 82.5H69.6242V95H58.5742V59.75H172.274C182.524 59.75 187.674 62.8 187.674 68.9V69.45C187.674 73.2 185.474 75.75 181.074 77.2C183.074 77.75 184.724 78.7 185.924 80.05ZM176.074 71.2V71.15C176.074 70.15 175.724 69.35 174.974 68.7C174.274 68.1 173.124 67.75 171.624 67.75H69.6242V74.7H171.624C173.124 74.7 174.274 74.35 174.974 73.75C175.724 73.1 176.074 72.25 176.074 71.2ZM225.692 60.4L244.292 94.95H232.542L229.292 88.65H204.342L201.092 94.95H189.392L207.942 60.4H225.692ZM208.392 80.85H225.292L218.692 68.15H214.942L208.392 80.85ZM254.373 95.05V68.35H237.973V60.05H282.873V68.35H266.423V95.05H254.373ZM297.52 60.1V95H285.62V60.1H297.52ZM323.791 95.65C319.991 95.65 316.641 95.35 313.841 94.75C310.991 94.15 308.791 93.45 307.241 92.6C305.741 91.75 304.491 90.7 303.591 89.5C302.691 88.3 302.091 87.2 301.841 86.25C301.591 85.3 301.491 84.25 301.491 83.15V82.65H313.941C314.191 86.35 316.891 88.2 324.191 88.2H326.941C329.341 88.2 330.341 88.05 331.941 87.85C333.491 87.65 334.641 87.4 335.341 87C336.091 86.6 336.541 86.25 336.791 85.85C337.041 85.45 337.141 85 337.141 84.45C337.141 83.7 336.941 83.1 336.541 82.65C336.141 82.25 335.141 81.85 333.641 81.5C332.141 81.2 329.991 81 327.141 80.95L323.391 80.85L320.591 80.8C308.191 80.5 301.991 77.05 301.991 70.55V70.1C301.991 69 302.141 67.95 302.441 67C302.741 66.05 303.341 65.1 304.291 64.1C305.191 63.15 306.391 62.35 307.891 61.7C309.391 61.05 311.391 60.5 313.941 60.1C316.441 59.65 319.391 59.45 322.741 59.45H326.291C329.741 59.45 332.841 59.65 335.491 60.1C338.191 60.55 340.291 61.1 341.891 61.8C343.491 62.5 344.791 63.35 345.791 64.35C346.791 65.35 347.491 66.35 347.841 67.3C348.241 68.3 348.441 69.35 348.441 70.5V70.95H336.041C335.941 70.6 335.841 70.25 335.741 70C335.641 69.75 335.341 69.4 334.891 68.95C334.441 68.5 333.891 68.15 333.141 67.85C332.441 67.6 331.341 67.35 329.941 67.1C328.541 66.9 327.441 66.8 325.541 66.8H323.791C320.891 66.8 319.091 66.95 317.541 67.25C316.041 67.6 315.091 67.95 314.791 68.3C314.441 68.65 314.291 69.15 314.291 69.8C314.291 70.4 314.441 70.85 314.841 71.25C315.191 71.6 316.041 71.95 317.391 72.3C318.741 72.6 320.641 72.75 323.091 72.8L325.891 72.85L329.491 72.9C336.641 73 341.741 73.9 344.891 75.55C348.091 77.2 349.641 79.75 349.641 83.3V83.95C349.641 85.25 349.491 86.4 349.191 87.4C348.891 88.4 348.241 89.45 347.291 90.55C346.341 91.6 345.091 92.5 343.491 93.2C341.891 93.95 339.741 94.5 336.991 94.95C334.241 95.45 330.991 95.65 327.291 95.65H323.791Z" fill="#7678ED"/>
<path d="M228.9 46.25L223.5 54H212.75L217.3 46.25H228.9Z" fill="#F18701"/>
</svg>
