<svg width="294" height="48" viewBox="0 0 294 48" fill="none" xmlns="http://www.w3.org/2000/svg">
<circle cx="24" cy="17" r="7" fill="url(#paint0_radial_324_175)"/>
<path fill-rule="evenodd" clip-rule="evenodd" d="M23.7899 47.5797C36.9286 47.5797 47.5797 36.9286 47.5797 23.7899C47.5797 10.6511 36.9286 0 23.7899 0C10.6511 0 0 10.6511 0 23.7899C0 36.9286 10.6511 47.5797 23.7899 47.5797ZM28.5192 26.0828C34.2971 26.0828 38.981 21.3989 38.981 15.621C38.981 9.84312 34.2971 5.15921 28.5192 5.15921C22.7413 5.15921 18.0574 9.84312 18.0574 15.621C18.0574 21.3989 22.7413 26.0828 28.5192 26.0828Z" fill="url(#paint1_radial_324_175)"/>
<path d="M62 8.6832H95.3895V15.4298H72.0678V19.8705H94.8373V26.6598H72.0678V38.4876H62V8.6832Z" fill="#F18701"/>
<path d="M134.258 26.062C135.278 27.1722 135.787 28.624 135.787 30.4174V38.4876H126.569V33.2355C126.569 31.4422 126.102 30.1185 125.167 29.3072C124.233 28.4959 122.661 28.0689 120.409 28.0689H108.43V38.4876H99.2543V9.11019H122.916C131.412 9.11019 135.66 11.6722 135.66 16.7534V17.2231C135.66 20.3402 133.833 22.4752 130.222 23.6708C131.879 24.1405 133.239 24.9091 134.258 26.062ZM126.059 18.6749V18.6322C126.059 17.7782 125.762 17.095 125.167 16.5826C124.573 16.0702 123.638 15.7714 122.364 15.7714H108.43V21.5785H122.364C123.638 21.5785 124.573 21.2796 125.167 20.7672C125.762 20.2548 126.059 19.5289 126.059 18.6749Z" fill="#F18701"/>
<path d="M140.324 8.5551H198.319V15.3444H150.349V19.7851H197.767V26.6171H150.349V31.5275H198.787V38.4876H140.324V8.5551Z" fill="#F18701"/>
<path d="M226.017 39C223.425 39 221.089 38.8292 218.922 38.4449C216.756 38.0606 214.929 37.5909 213.485 36.9931C211.998 36.3526 210.724 35.6267 209.577 34.7727C208.43 33.876 207.538 33.022 206.9 32.1253C206.263 31.2286 205.753 30.2893 205.329 29.2645C204.904 28.2397 204.606 27.3003 204.479 26.489C204.352 25.635 204.309 24.8237 204.309 24.0124V22.8168C204.309 21.5358 204.437 20.2975 204.691 19.1446C204.946 17.9917 205.541 16.7107 206.433 15.3017C207.368 13.8926 208.557 12.6543 210.044 11.6295C211.531 10.6047 213.655 9.75069 216.416 9.06749C219.135 8.3416 222.363 8 226.017 8H227.801C231.412 8 234.555 8.2989 237.316 8.8967C240.035 9.53719 242.159 10.2631 243.646 11.1171C245.133 12.0138 246.365 12.9959 247.299 14.1488C248.276 15.3017 248.871 16.3264 249.168 17.2231C249.423 18.1198 249.551 18.9738 249.551 19.7851V20.2548H238.761C238.676 19.9132 238.591 19.657 238.463 19.4008C238.336 19.1446 237.996 18.7176 237.444 18.1625C236.892 17.6074 236.254 17.1377 235.49 16.7534C234.725 16.3691 233.578 16.0275 232.091 15.7286C230.562 15.4298 228.863 15.259 226.909 15.259C224.572 15.259 222.576 15.4725 220.961 15.9422C219.305 16.3691 218.073 16.9669 217.223 17.7355C216.416 18.5468 215.821 19.3581 215.481 20.2121C215.099 21.0661 214.929 22.0055 214.929 23.0303V23.5C214.929 24.4821 215.142 25.4215 215.524 26.3182C215.906 27.2149 216.543 28.0689 217.393 28.9229C218.243 29.7769 219.475 30.4601 221.131 30.9725C222.788 31.4848 224.742 31.741 226.994 31.741C233.663 31.741 237.571 29.9904 238.761 26.5317C238.803 26.489 238.803 26.4463 238.803 26.4036H249.593V26.8306C249.593 27.7273 249.466 28.6667 249.168 29.6061C248.828 30.5455 248.191 31.5702 247.257 32.7658C246.28 33.9187 245.048 34.9435 243.518 35.8402C242.032 36.6942 239.908 37.4628 237.189 38.1033C234.47 38.7011 231.327 39 227.801 39H226.017Z" fill="#F18701"/>
<path d="M281.936 38.4876L269.446 27.343H266.345V38.4876H257.127V8.98209H266.345V18.4187H269.829L281.468 8.98209H293.193L276.243 22.4752L294 38.4876H281.936Z" fill="#F18701"/>
<defs>
<radialGradient id="paint0_radial_324_175" cx="0" cy="0" r="1" gradientUnits="userSpaceOnUse" gradientTransform="translate(25.8421 14.4211) rotate(131.009) scale(11.2293)">
<stop stop-color="#F18701"/>
<stop offset="1" stop-color="#9E5800"/>
</radialGradient>
<radialGradient id="paint1_radial_324_175" cx="0" cy="0" r="1" gradientUnits="userSpaceOnUse" gradientTransform="translate(22.5471 23.6123) rotate(135.562) scale(25.6108)">
<stop offset="0.776042" stop-color="#7678ED"/>
<stop offset="1" stop-color="#3B3D80"/>
</radialGradient>
</defs>
</svg>
