<svg width="257" height="23" viewBox="0 0 257 23" fill="none" xmlns="http://www.w3.org/2000/svg">
<path d="M16.2733 22.16C13.8733 22.16 11.7533 21.92 9.87329 21.48C7.99328 21.04 6.51328 20.48 5.43328 19.8C4.35328 19.12 3.43328 18.32 2.71328 17.36C2.03328 16.4 1.55328 15.48 1.31328 14.56C1.07328 13.68 0.953284 12.72 0.953284 11.76V11C0.953284 10.04 1.07328 9.12 1.31328 8.2C1.55328 7.32 2.03328 6.44 2.71328 5.48C3.39328 4.56 4.31328 3.8 5.39328 3.12C6.51328 2.44 7.99328 1.92 9.83328 1.48C11.7133 1.08 13.8333 0.839998 16.2333 0.839998H18.5533C21.1533 0.839998 23.4733 1.08 25.4333 1.52C27.3933 1.96 28.9133 2.52 29.9533 3.16C30.9933 3.8 31.8333 4.56 32.5133 5.4C33.1533 6.28 33.5533 7.04 33.7533 7.68C33.9133 8.36 33.9933 9 33.9933 9.68V9.76H24.6333C24.0333 7.36 21.5933 6.12 17.3533 6.12H17.2333C14.7933 6.12 13.0333 6.6 11.9133 7.56C10.7933 8.48 10.2733 9.68 10.2733 11.12V11.4C10.2733 12.92 10.8333 14.2 11.9133 15.24C13.0333 16.28 14.8333 16.8 17.2333 16.8H17.3533C21.5533 16.8 23.9933 15.56 24.6333 13.08H33.9933V13.16C33.9933 13.84 33.9133 14.52 33.7533 15.2C33.5933 15.84 33.1933 16.64 32.5933 17.52C31.9533 18.4 31.1133 19.16 30.0733 19.8C29.0333 20.44 27.5133 21 25.5133 21.44C23.5133 21.92 21.1933 22.16 18.5133 22.16H16.2733ZM67.9817 21.72H58.9417V18.2C58.5017 18.6 58.1817 18.88 58.0217 19C57.8617 19.16 57.3817 19.48 56.5817 19.96C55.8217 20.48 55.1017 20.84 54.4217 21.08C53.7817 21.32 52.8617 21.56 51.7417 21.8C50.6217 22.04 49.4617 22.16 48.2617 22.16H47.9417C44.4617 22.16 41.8617 21.36 40.1017 19.72C38.3417 18.12 37.5017 16.24 37.5017 14.08V1.52H46.7017V11.48C46.7017 13.04 47.1417 14.28 48.1017 15.16C49.0217 16.08 50.4617 16.52 52.3417 16.52C54.3017 16.52 55.9017 16.04 57.1017 15.04C58.2617 14.04 58.8617 12.68 58.8617 11.04V1.52H67.9817V21.72ZM88.4311 0.72H97.9111V5.48C97.9111 5.48 85.7511 5.48 84.7111 5.6C83.6711 5.72 82.0711 6.64 81.2711 7.6C80.4711 8.56 80.0711 9.72 80.0711 11.16V21.8H71.5111V1.16H80.0311V4.8C80.3911 4.28 80.8311 3.72 81.3511 3.2C81.9111 2.68 82.8311 2.12 84.1111 1.56C85.4311 0.999999 86.8311 0.72 88.4311 0.72ZM177.009 11.8C177.569 12.64 177.849 13.8 177.849 15.24V15.48C177.849 16.52 177.689 17.4 177.289 18.2C176.929 18.96 176.289 19.68 175.369 20.36C174.449 21.04 173.049 21.56 171.209 21.92C169.369 22.32 167.089 22.48 164.369 22.48H112.369C103.609 22.48 99.2489 20.08 99.2489 15.24V15.04H107.969C107.969 16.72 109.449 17.64 112.409 17.76C112.689 17.8 163.369 17.8 163.649 17.8H163.729C165.169 17.8 166.329 17.68 167.169 17.48C167.969 17.28 168.489 17.04 168.689 16.8C168.889 16.56 169.009 16.24 169.009 15.88V15.8C169.009 15.2 168.729 14.76 168.129 14.48C167.569 14.2 166.369 14.04 164.529 14L112.529 13.96L110.449 13.92C108.329 13.88 106.489 13.68 105.009 13.28C103.489 12.92 102.329 12.4 101.569 11.76C100.809 11.16 100.249 10.48 99.9289 9.8C99.5689 9.12 99.4089 8.36 99.4089 7.56V7.36C99.4089 6.64 99.4889 6 99.6489 5.44C99.8489 4.88 100.169 4.32 100.729 3.76C101.289 3.16 102.009 2.68 102.929 2.32C103.849 1.92 105.089 1.6 106.689 1.36C108.289 1.12 110.169 0.999999 112.329 0.999999H164.289C172.809 0.999999 177.089 3.12 177.089 7.36V7.64H168.449C168.409 7.4 168.329 7.16 168.249 7C168.129 6.8 167.929 6.56 167.609 6.32C167.329 6.08 166.809 5.92 166.089 5.76C165.529 5.68 164.929 5.6 164.169 5.56C163.929 5.56 113.249 5.56 113.009 5.56H112.969C111.009 5.56 109.729 5.68 109.089 5.92C108.409 6.12 108.089 6.52 108.089 7.08V7.16C108.089 7.64 108.409 8.04 109.009 8.32C109.609 8.56 110.729 8.72 112.369 8.8H164.689L166.449 8.84C169.529 8.92 171.889 9.2 173.609 9.72C175.289 10.24 176.449 10.96 177.009 11.8ZM198.307 22.12H195.427C192.987 22.12 190.787 21.88 188.907 21.44C187.027 21 185.507 20.48 184.347 19.8C183.187 19.12 182.267 18.28 181.547 17.36C180.787 16.4 180.307 15.48 180.027 14.56C179.747 13.64 179.627 12.68 179.627 11.68V11C179.627 10 179.747 9.08 180.027 8.16C180.307 7.24 180.787 6.36 181.507 5.44C182.227 4.48 183.147 3.72 184.307 3.04C185.467 2.36 186.987 1.84 188.867 1.44C190.747 0.999999 192.947 0.799999 195.387 0.799999H198.307C208.787 0.799999 214.027 4.2 214.027 11V11.68C214.027 18.64 208.787 22.12 198.307 22.12ZM196.867 16.68C199.707 16.68 201.747 16.16 202.947 15.12C204.187 14.12 204.787 12.88 204.787 11.48V11.28C204.787 9.84 204.187 8.6 202.947 7.64C201.747 6.64 199.707 6.16 196.907 6.16H196.867C193.987 6.16 191.947 6.64 190.747 7.6C189.547 8.56 188.947 9.8 188.947 11.28V11.48C188.947 12.88 189.547 14.12 190.787 15.12C191.987 16.16 194.027 16.68 196.867 16.68ZM229.981 22.48C220.541 22.48 215.861 20.12 215.861 15.32V15.08H225.261C225.261 16.92 227.141 17.84 230.901 17.84H230.981C232.541 17.84 233.781 17.72 234.661 17.52C235.541 17.32 236.101 17.12 236.341 16.88C236.541 16.6 236.661 16.32 236.661 15.92V15.84C236.661 15.28 236.341 14.84 235.741 14.56C235.101 14.28 233.821 14.12 231.821 14.08L227.901 14C225.621 13.96 223.661 13.76 222.021 13.36C220.421 13 219.181 12.48 218.341 11.88C217.541 11.24 216.941 10.6 216.581 9.92C216.221 9.24 216.061 8.52 216.061 7.72V7.48C216.061 6.8 216.141 6.16 216.301 5.6C216.501 5.08 216.861 4.48 217.461 3.92C218.061 3.36 218.821 2.88 219.821 2.48C220.781 2.12 222.141 1.8 223.861 1.56C225.581 1.32 227.621 1.2 229.941 1.2H231.581C240.781 1.2 245.381 3.28 245.381 7.52V7.8H236.061C236.021 7.52 235.941 7.32 235.821 7.12C235.741 6.96 235.501 6.72 235.181 6.48C234.861 6.24 234.301 6.08 233.541 5.92C232.741 5.8 231.781 5.72 230.661 5.72H230.621C228.541 5.72 227.141 5.84 226.421 6.08C225.741 6.28 225.381 6.68 225.381 7.24V7.28C225.381 7.8 225.701 8.2 226.341 8.44C227.021 8.72 228.221 8.88 229.981 8.92L233.901 9C237.221 9.04 239.781 9.32 241.581 9.84C243.421 10.36 244.661 11.04 245.261 11.88C245.861 12.72 246.181 13.88 246.181 15.32V15.56C246.181 16.56 245.981 17.48 245.581 18.24C245.181 19 244.501 19.72 243.501 20.4C242.501 21.08 241.021 21.6 239.021 21.96C237.021 22.32 234.581 22.48 231.661 22.48H229.981ZM256.52 1.48V7H248.24V1.48H256.52ZM256.52 11.24V16.76H248.24V11.24H256.52Z" fill="#F18701"/>
</svg>
